<svg width="694" height="134" viewBox="0 0 694 134" fill="none" xmlns="http://www.w3.org/2000/svg">
<path d="M672.397 132.319C670.905 132.319 669.696 131.11 669.696 129.619V10.8016C669.696 9.31025 670.905 8.10126 672.397 8.10126H691.299C692.791 8.10126 694 9.31026 694 10.8016V129.619C694 131.11 692.791 132.319 691.299 132.319H672.397Z" fill="#335755"/>
<path d="M342.757 131.976C339.551 131.976 336.239 131.686 332.822 131.108C329.458 130.583 326.304 129.505 323.36 127.875C320.469 126.193 318.13 123.749 316.342 120.542C314.555 117.336 313.661 113.104 313.661 107.847C313.661 106.691 313.661 105.508 313.661 104.299C313.661 103.09 313.661 101.881 313.661 100.672V68.1255C313.661 66.6341 312.452 65.4251 310.961 65.4251H297.043C295.552 65.4251 294.343 64.2161 294.343 62.7247V51.3075C294.343 49.8161 295.552 48.6071 297.043 48.6071H299.744C302.898 48.6071 306.005 48.8699 307.845 48.6071C309.737 48.3443 311.002 45.6079 311.895 44.5565C312.842 43.4526 313.004 41.3229 313.267 39.0099C313.53 36.697 313.661 33.5166 313.661 29.4689V21.6032C313.661 20.1118 314.87 18.9028 316.362 18.9028H335.484C336.975 18.9028 338.184 20.1118 338.184 21.6032V45.9067C338.184 47.3981 339.393 48.6071 340.884 48.6071H359.849C361.34 48.6071 362.549 49.8161 362.549 51.3075V62.7247C362.549 64.2161 361.34 65.4251 359.849 65.4251H340.884C339.393 65.4251 338.184 66.6341 338.184 68.1255V95.5463C338.184 96.4926 338.184 97.4126 338.184 98.3061C338.184 99.1997 338.184 100.067 338.184 100.908C338.184 104.535 338.605 107.479 339.446 109.74C340.34 112 342.521 113.13 345.99 113.13C347.725 113.13 349.355 112.972 350.879 112.657C352.606 112.312 354.427 113.627 354.427 115.388V128.303C354.427 129.383 353.785 130.369 352.747 130.667C351.9 130.91 350.91 131.136 349.775 131.345C347.778 131.765 345.438 131.976 342.757 131.976Z" fill="#335755"/>
<path d="M70.5871 132.319C69.0957 132.319 67.8867 131.11 67.8867 129.619V50.2044C67.8867 48.713 69.0957 47.504 70.5871 47.504H89.4014C90.8927 47.504 92.1017 48.713 92.1017 50.2044V72.3545C92.1017 74.2477 90.0085 75.3922 88.4147 74.3704C87.6252 73.8643 87.1982 72.9428 87.3613 72.0192C87.9635 68.6095 88.9207 65.4425 90.2331 62.5184C91.7384 59.1641 93.6849 56.2624 96.0727 53.8132C98.4606 51.3108 101.289 49.3675 104.56 47.9832C107.882 46.5989 111.671 45.9067 115.927 45.9067C119.25 45.9067 121.845 46.173 123.714 46.7054C124.404 46.8777 125.001 47.0362 125.504 47.181C126.602 47.4973 127.161 48.5754 126.959 49.7009L123.917 66.7092C123.628 68.3269 121.754 69.3098 120.21 68.7477C118.601 68.1621 116.524 67.8692 113.981 67.8692C109.828 67.8692 106.35 68.588 103.547 70.0255C100.744 71.4631 98.4864 73.3798 96.7735 75.7757C95.1125 78.1183 93.9185 80.7273 93.1918 83.6024C92.4651 86.4775 92.1017 89.3791 92.1017 92.3075V129.619C92.1017 131.11 90.8927 132.319 89.4014 132.319H70.5871Z" fill="#335755"/>
<path d="M442.77 132.959C433.728 132.959 425.764 131.092 418.878 127.36C411.991 123.628 406.603 118.503 402.713 111.984C398.876 105.413 396.957 97.8436 396.957 89.275C396.957 80.759 398.876 73.242 402.713 66.7235C406.603 60.1526 411.991 55.0535 418.878 51.4263C425.764 47.7466 433.728 45.9067 442.77 45.9067C451.811 45.9067 459.775 47.7466 466.662 51.4263C473.548 55.0535 478.91 60.1526 482.747 66.7235C486.637 73.242 488.582 80.759 488.582 89.275C488.582 97.8436 486.637 105.413 482.747 111.984C478.91 118.503 473.548 123.628 466.662 127.36C459.775 131.092 451.811 132.959 442.77 132.959ZM442.77 113.561C447.028 113.561 450.734 112.562 453.888 110.565C457.042 108.567 459.486 105.755 461.221 102.128C462.956 98.4479 463.823 94.1638 463.823 89.275C463.823 84.3862 462.956 80.1544 461.221 76.5799C459.486 72.9528 457.042 70.1667 453.888 68.2217C450.734 66.2767 447.028 65.3042 442.77 65.3042C438.564 65.3042 434.858 66.2767 431.652 68.2217C428.498 70.1667 426.053 72.9528 424.319 76.5799C422.584 80.1544 421.716 84.3862 421.716 89.275C421.716 94.1638 422.584 98.4479 424.319 102.128C426.053 105.755 428.498 108.567 431.652 110.565C434.858 112.562 438.564 113.561 442.77 113.561Z" fill="#335755"/>
<path d="M553.152 131.224C551.661 131.224 550.452 130.015 550.452 128.524V95.6619C550.452 93.6645 550.452 91.8509 550.452 90.2212C550.452 88.5915 550.452 87.1198 550.452 85.8055C550.452 82.3361 550.005 79.182 549.111 76.3434C548.217 73.452 546.614 71.1392 544.301 69.4044C541.988 67.6697 538.65 66.8023 534.287 66.8023C530.502 66.8023 527.217 67.6697 524.431 69.4044C521.697 71.1392 519.594 73.5574 518.122 76.6588C517.323 78.3441 516.74 80.1692 516.375 82.1341C515.973 84.2988 513.421 85.5849 511.635 84.2973L510.255 83.3021C509.551 82.7945 509.128 81.9792 509.153 81.1116C509.342 74.4288 510.912 68.5288 513.864 63.4118C517.019 57.9447 521.277 53.6605 526.638 50.559C532.053 47.4575 538.046 45.9067 544.617 45.9067C551.503 45.9067 557.154 47.2998 561.57 50.0858C566.038 52.8194 569.35 56.6568 571.505 61.5981C573.713 66.4869 574.817 72.2168 574.817 78.7877C574.817 81.4687 574.817 84.465 574.817 87.7768C574.817 91.0886 574.817 94.4792 574.817 97.9486V128.524C574.817 130.015 573.608 131.224 572.116 131.224H553.152ZM494.171 131.224C492.68 131.224 491.471 130.015 491.471 128.524V50.1841C491.471 48.6928 492.68 47.4838 494.171 47.4838H513.214C514.706 47.4838 515.915 48.6928 515.915 50.1842V128.524C515.915 130.015 514.706 131.224 513.214 131.224H494.171Z" fill="#335755"/>
<path d="M369.953 132.319C368.462 132.319 367.253 131.11 367.253 129.619V51.3075C367.253 49.8161 368.462 48.6071 369.953 48.6071H387.506C388.997 48.6071 390.206 49.8161 390.206 51.3075V129.619C390.206 131.11 388.997 132.319 387.506 132.319H369.953Z" fill="#335755"/>
<path d="M20.1265 132.45C18.6352 132.45 17.4261 131.241 17.4261 129.749V70.3344C17.4261 68.843 16.2171 67.634 14.7258 67.634H2.70039C1.209 67.634 0 66.425 0 64.9337V51.4101C0 49.9187 1.20901 48.7097 2.70039 48.7097H14.7258C16.2171 48.7097 17.4261 47.5007 17.4261 46.0093V42.9536C17.4261 37.3813 18.1621 32.624 19.634 28.6815C21.1584 24.6863 23.2086 21.3746 25.7844 18.7462C28.3602 16.0652 31.2515 13.9625 34.458 12.4381C37.7174 10.8611 41.0553 9.75713 44.4721 9.12632C47.9416 8.44294 51.306 8.10126 54.5651 8.10126C58.0345 8.10126 60.6104 8.31152 62.2925 8.73206C62.9912 8.88027 63.5961 9.01996 64.1072 9.15111C65.1329 9.41431 65.762 10.3581 65.762 11.417V25.2145C65.762 26.9201 64.0552 28.2434 62.3714 27.9718C60.7943 27.709 59.0861 27.5775 57.246 27.5775C54.1973 27.5775 51.674 27.9718 49.6763 28.7603C47.6788 29.5488 46.1018 30.7053 44.9452 32.2298C43.7889 33.7017 42.9739 35.4627 42.5008 37.5128C42.0277 39.5103 41.7912 41.6919 41.7912 44.0575V46.0093C41.7912 47.5007 43.0002 48.7097 44.4916 48.7097H61.5634C63.0548 48.7097 64.2638 49.9187 64.2638 51.4101V64.9336C64.2638 66.425 63.0548 67.634 61.5634 67.634H44.4916C43.0002 67.634 41.7912 68.843 41.7912 70.3344V129.749C41.7912 131.241 40.5822 132.45 39.0908 132.45H20.1265Z" fill="#335755"/>
<path d="M256.679 133.116C247.48 133.116 239.411 131.277 232.472 127.597C225.533 123.865 220.145 118.687 216.307 112.063C212.522 105.44 210.63 97.7909 210.63 89.1173C210.63 80.3386 212.522 72.7425 216.307 66.3293C220.145 59.8634 225.533 54.8432 232.472 51.2686C239.411 47.694 247.48 45.9067 256.679 45.9067C263.565 45.9067 269.663 46.9318 274.973 48.9819C280.282 50.9795 284.724 53.6342 288.299 56.9459C291.873 60.2577 294.58 63.8848 296.42 67.8274C298.26 71.77 299.18 75.6863 299.18 79.5763C299.18 79.6289 299.18 79.734 299.18 79.8917C299.18 80.0659 299.039 80.2071 298.865 80.2071H275.767C275.328 80.2071 274.984 79.8428 274.907 79.4112C274.898 79.3599 274.894 79.3134 274.893 79.2613C274.885 78.9721 274.832 78.6828 274.736 78.3935C274.315 76.1856 273.396 74.1093 271.976 72.1643C270.557 70.2192 268.559 68.6422 265.984 67.4332C263.46 66.1715 260.306 65.5407 256.521 65.5407C252.474 65.5407 248.846 66.4344 245.64 68.2217C242.486 70.009 239.989 72.6636 238.149 76.1856C236.309 79.6551 235.389 83.9657 235.389 89.1173C235.389 94.1638 236.309 98.5268 238.149 102.207C239.989 105.834 242.486 108.62 245.64 110.565C248.846 112.51 252.474 113.482 256.521 113.482C260.674 113.482 264.065 112.852 266.693 111.59C269.322 110.276 271.293 108.541 272.607 106.386C273.509 104.87 274.164 103.254 274.571 101.54C274.891 100.19 276.029 99.1314 277.416 99.1314H296.48C297.971 99.1314 299.194 100.344 299.034 101.826C298.708 104.85 297.837 107.921 296.42 111.038C294.633 115.033 291.952 118.687 288.377 121.998C284.855 125.31 280.44 127.991 275.13 130.041C269.821 132.091 263.67 133.116 256.679 133.116Z" fill="#335755"/>
<path d="M155.68 132.959C149.582 132.959 144.141 131.986 139.357 130.041C134.626 128.096 130.92 125.284 128.239 121.604C125.558 117.924 124.218 113.456 124.218 108.199C124.218 102.259 125.847 97.4229 129.107 93.6906C132.366 89.9584 136.676 87.1198 142.038 85.1747C147.453 83.1772 153.314 81.8629 159.622 81.2321C168.821 80.3386 175.156 79.5236 178.625 78.7877C182.147 78.0519 183.908 76.7638 183.908 74.924C183.908 74.8714 183.908 74.819 183.908 74.7663C183.908 71.6648 182.41 69.2205 179.414 67.4332C176.47 65.6459 172.343 64.7522 167.034 64.7522C161.409 64.7522 157.099 65.7773 154.103 67.8274C151.834 69.3669 150.439 71.5463 149.919 74.3658C149.648 75.8324 148.478 77.053 146.986 77.053H128.337C126.846 77.053 125.624 75.8415 125.739 74.3545C126.166 68.793 127.946 64.0152 131.078 60.0211C134.758 55.3952 139.725 51.8994 145.981 49.5339C152.236 47.1158 159.307 45.9067 167.192 45.9067C174.551 45.9067 181.359 47.0369 187.614 49.2973C193.87 51.5052 198.89 54.8432 202.675 59.3115C206.512 63.7797 208.431 69.457 208.431 76.3434C208.431 77.4473 208.431 78.5512 208.431 79.6551C208.431 80.7064 208.431 81.7841 208.431 82.888V112.536C208.431 114.691 208.484 116.768 208.589 118.765C208.747 120.71 209.062 122.498 209.535 124.127C210.061 125.967 210.718 127.492 211.506 128.701C212.123 129.646 211.397 131.224 210.268 131.224H190.546C189.83 131.224 189.143 130.937 188.711 130.367C188.423 129.987 188.084 129.511 187.693 128.937C186.957 127.781 186.326 126.44 185.801 124.916C185.17 123.076 184.697 121.236 184.381 119.396C184.279 118.663 184.197 117.881 184.135 117.053C183.999 115.244 186.022 114.172 187.517 115.199C188.4 115.806 188.745 116.957 188.24 117.902C186.757 120.676 184.63 123.119 181.858 125.231C178.599 127.702 174.709 129.621 170.188 130.987C165.72 132.302 160.884 132.959 155.68 132.959ZM162.224 114.665C166.061 114.665 169.636 113.982 172.948 112.615C176.312 111.196 179.046 108.988 181.149 105.991C183.251 102.995 184.303 99.0787 184.303 94.2426V90.8739C184.303 88.9822 186.578 88.022 187.933 89.342C189.063 90.4422 188.65 92.3348 187.139 92.787C184.469 93.5865 181.526 94.2819 178.31 94.8734C173.789 95.6619 169.268 96.2927 164.747 96.7659C159.386 97.2916 155.364 98.2114 152.683 99.5257C150.055 100.787 148.741 102.942 148.741 105.991C148.741 108.883 149.871 111.064 152.131 112.536C154.391 113.955 157.756 114.665 162.224 114.665Z" fill="#335755"/>
<path d="M609.345 132.959C603.247 132.959 597.806 131.986 593.022 130.041C588.291 128.096 584.585 125.284 581.904 121.604C579.223 117.924 577.883 113.456 577.883 108.199C577.883 102.259 579.512 97.4229 582.772 93.6906C586.031 89.9584 590.341 87.1198 595.703 85.1747C601.118 83.1772 606.979 81.8629 613.287 81.2321C622.486 80.3386 628.821 79.5236 632.29 78.7877C635.812 78.0519 637.573 76.7638 637.573 74.924C637.573 74.8714 637.573 74.819 637.573 74.7663C637.573 71.6648 636.075 69.2205 633.079 67.4332C630.135 65.6459 626.008 64.7522 620.699 64.7522C615.074 64.7522 610.764 65.7773 607.768 67.8274C605.499 69.3669 604.104 71.5463 603.584 74.3658C603.313 75.8324 602.143 77.053 600.651 77.053H582.003C580.511 77.053 579.289 75.8415 579.404 74.3545C579.831 68.793 581.611 64.0152 584.743 60.0211C588.423 55.3952 593.39 51.8994 599.646 49.5339C605.901 47.1158 612.972 45.9067 620.857 45.9067C628.216 45.9067 635.024 47.0369 641.279 49.2973C647.535 51.5052 652.555 54.8432 656.34 59.3115C660.177 63.7797 662.096 69.457 662.096 76.3434C662.096 77.4473 662.096 78.5512 662.096 79.6551C662.096 80.7064 662.096 81.7841 662.096 82.888V112.536C662.096 114.691 662.149 116.768 662.254 118.765C662.412 120.71 662.727 122.498 663.2 124.127C663.726 125.967 664.383 127.492 665.171 128.701C665.788 129.646 665.062 131.224 663.933 131.224H644.212C643.495 131.224 642.808 130.937 642.376 130.367C642.088 129.987 641.749 129.511 641.358 128.937C640.622 127.781 639.991 126.44 639.466 124.916C638.835 123.076 638.362 121.236 638.046 119.396C637.945 118.663 637.862 117.881 637.8 117.053C637.664 115.244 639.687 114.172 641.182 115.199C642.065 115.806 642.41 116.957 641.905 117.902C640.422 120.676 638.295 123.119 635.523 125.231C632.264 127.702 628.374 129.621 623.853 130.987C619.385 132.302 614.549 132.959 609.345 132.959ZM615.889 114.665C619.727 114.665 623.301 113.982 626.613 112.615C629.977 111.196 632.711 108.988 634.814 105.991C636.916 102.995 637.968 99.0787 637.968 94.2426V90.8739C637.968 88.9822 640.243 88.022 641.598 89.342C642.728 90.4422 642.315 92.3348 640.804 92.787C638.134 93.5865 635.191 94.2819 631.975 94.8734C627.454 95.6619 622.933 96.2927 618.412 96.7659C613.051 97.2916 609.029 98.2114 606.348 99.5257C603.72 100.787 602.406 102.942 602.406 105.991C602.406 108.883 603.536 111.064 605.796 112.536C608.057 113.955 611.421 114.665 615.889 114.665Z" fill="#335755"/>
<path d="M672.397 132.319C670.905 132.319 669.696 131.11 669.696 129.619V10.8016C669.696 9.31025 670.905 8.10126 672.397 8.10126H691.299C692.791 8.10126 694 9.31026 694 10.8016V129.619C694 131.11 692.791 132.319 691.299 132.319H672.397Z" fill="#335755"/>
<path d="M342.757 131.976C339.551 131.976 336.239 131.686 332.822 131.108C329.458 130.583 326.304 129.505 323.36 127.875C320.469 126.193 318.13 123.749 316.342 120.542C314.555 117.336 313.661 113.104 313.661 107.847C313.661 106.691 313.661 105.508 313.661 104.299C313.661 103.09 313.661 101.881 313.661 100.672V68.1255C313.661 66.6341 312.452 65.4251 310.961 65.4251H297.043C295.552 65.4251 294.343 64.2161 294.343 62.7247V51.3075C294.343 49.8161 295.552 48.6071 297.043 48.6071H299.744C302.898 48.6071 306.005 48.8699 307.845 48.6071C309.737 48.3443 311.002 45.6079 311.895 44.5565C312.842 43.4526 313.004 41.3229 313.267 39.0099C313.53 36.697 313.661 33.5166 313.661 29.4689V21.6032C313.661 20.1118 314.87 18.9028 316.362 18.9028H335.484C336.975 18.9028 338.184 20.1118 338.184 21.6032V45.9067C338.184 47.3981 339.393 48.6071 340.884 48.6071H359.849C361.34 48.6071 362.549 49.8161 362.549 51.3075V62.7247C362.549 64.2161 361.34 65.4251 359.849 65.4251H340.884C339.393 65.4251 338.184 66.6341 338.184 68.1255V95.5463C338.184 96.4926 338.184 97.4126 338.184 98.3061C338.184 99.1997 338.184 100.067 338.184 100.908C338.184 104.535 338.605 107.479 339.446 109.74C340.34 112 342.521 113.13 345.99 113.13C347.725 113.13 349.355 112.972 350.879 112.657C352.606 112.312 354.427 113.627 354.427 115.388V128.303C354.427 129.383 353.785 130.369 352.747 130.667C351.9 130.91 350.91 131.136 349.775 131.345C347.778 131.765 345.438 131.976 342.757 131.976Z" fill="#335755"/>
<path d="M70.5871 132.319C69.0957 132.319 67.8867 131.11 67.8867 129.619V50.2044C67.8867 48.713 69.0957 47.504 70.5871 47.504H89.4014C90.8927 47.504 92.1017 48.713 92.1017 50.2044V72.3545C92.1017 74.2477 90.0085 75.3922 88.4147 74.3704C87.6252 73.8643 87.1982 72.9428 87.3613 72.0192C87.9635 68.6095 88.9207 65.4425 90.2331 62.5184C91.7384 59.1641 93.6849 56.2624 96.0727 53.8132C98.4606 51.3108 101.289 49.3675 104.56 47.9832C107.882 46.5989 111.671 45.9067 115.927 45.9067C119.25 45.9067 121.845 46.173 123.714 46.7054C124.404 46.8777 125.001 47.0362 125.504 47.181C126.602 47.4973 127.161 48.5754 126.959 49.7009L123.917 66.7092C123.628 68.3269 121.754 69.3098 120.21 68.7477C118.601 68.1621 116.524 67.8692 113.981 67.8692C109.828 67.8692 106.35 68.588 103.547 70.0255C100.744 71.4631 98.4864 73.3798 96.7735 75.7757C95.1125 78.1183 93.9185 80.7273 93.1918 83.6024C92.4651 86.4775 92.1017 89.3791 92.1017 92.3075V129.619C92.1017 131.11 90.8927 132.319 89.4014 132.319H70.5871Z" fill="#335755"/>
<path d="M442.77 132.959C433.728 132.959 425.764 131.092 418.878 127.36C411.991 123.628 406.603 118.503 402.713 111.984C398.876 105.413 396.957 97.8436 396.957 89.275C396.957 80.759 398.876 73.242 402.713 66.7235C406.603 60.1526 411.991 55.0535 418.878 51.4263C425.764 47.7466 433.728 45.9067 442.77 45.9067C451.811 45.9067 459.775 47.7466 466.662 51.4263C473.548 55.0535 478.91 60.1526 482.747 66.7235C486.637 73.242 488.582 80.759 488.582 89.275C488.582 97.8436 486.637 105.413 482.747 111.984C478.91 118.503 473.548 123.628 466.662 127.36C459.775 131.092 451.811 132.959 442.77 132.959ZM442.77 113.561C447.028 113.561 450.734 112.562 453.888 110.565C457.042 108.567 459.486 105.755 461.221 102.128C462.956 98.4479 463.823 94.1638 463.823 89.275C463.823 84.3862 462.956 80.1544 461.221 76.5799C459.486 72.9528 457.042 70.1667 453.888 68.2217C450.734 66.2767 447.028 65.3042 442.77 65.3042C438.564 65.3042 434.858 66.2767 431.652 68.2217C428.498 70.1667 426.053 72.9528 424.319 76.5799C422.584 80.1544 421.716 84.3862 421.716 89.275C421.716 94.1638 422.584 98.4479 424.319 102.128C426.053 105.755 428.498 108.567 431.652 110.565C434.858 112.562 438.564 113.561 442.77 113.561Z" fill="#335755"/>
<path d="M553.152 131.224C551.661 131.224 550.452 130.015 550.452 128.524V95.6619C550.452 93.6645 550.452 91.8509 550.452 90.2212C550.452 88.5915 550.452 87.1198 550.452 85.8055C550.452 82.3361 550.005 79.182 549.111 76.3434C548.217 73.452 546.614 71.1392 544.301 69.4044C541.988 67.6697 538.65 66.8023 534.287 66.8023C530.502 66.8023 527.217 67.6697 524.431 69.4044C521.697 71.1392 519.594 73.5574 518.122 76.6588C517.323 78.3441 516.74 80.1692 516.375 82.1341C515.973 84.2988 513.421 85.5849 511.635 84.2973L510.255 83.3021C509.551 82.7945 509.128 81.9792 509.153 81.1116C509.342 74.4288 510.912 68.5288 513.864 63.4118C517.019 57.9447 521.277 53.6605 526.638 50.559C532.053 47.4575 538.046 45.9067 544.617 45.9067C551.503 45.9067 557.154 47.2998 561.57 50.0858C566.038 52.8194 569.35 56.6568 571.505 61.5981C573.713 66.4869 574.817 72.2168 574.817 78.7877C574.817 81.4687 574.817 84.465 574.817 87.7768C574.817 91.0886 574.817 94.4792 574.817 97.9486V128.524C574.817 130.015 573.608 131.224 572.116 131.224H553.152ZM494.171 131.224C492.68 131.224 491.471 130.015 491.471 128.524V50.1841C491.471 48.6928 492.68 47.4838 494.171 47.4838H513.214C514.706 47.4838 515.915 48.6928 515.915 50.1842V128.524C515.915 130.015 514.706 131.224 513.214 131.224H494.171Z" fill="#335755"/>
<path d="M369.953 132.319C368.462 132.319 367.253 131.11 367.253 129.619V51.3075C367.253 49.8161 368.462 48.6071 369.953 48.6071H387.506C388.997 48.6071 390.206 49.8161 390.206 51.3075V129.619C390.206 131.11 388.997 132.319 387.506 132.319H369.953Z" fill="#335755"/>
<path d="M20.1265 132.45C18.6352 132.45 17.4261 131.241 17.4261 129.749V70.3344C17.4261 68.843 16.2171 67.634 14.7258 67.634H2.70039C1.209 67.634 0 66.425 0 64.9337V51.4101C0 49.9187 1.20901 48.7097 2.70039 48.7097H14.7258C16.2171 48.7097 17.4261 47.5007 17.4261 46.0093V42.9536C17.4261 37.3813 18.1621 32.624 19.634 28.6815C21.1584 24.6863 23.2086 21.3746 25.7844 18.7462C28.3602 16.0652 31.2515 13.9625 34.458 12.4381C37.7174 10.8611 41.0553 9.75713 44.4721 9.12632C47.9416 8.44294 51.306 8.10126 54.5651 8.10126C58.0345 8.10126 60.6104 8.31152 62.2925 8.73206C62.9912 8.88027 63.5961 9.01996 64.1072 9.15111C65.1329 9.41431 65.762 10.3581 65.762 11.417V25.2145C65.762 26.9201 64.0552 28.2434 62.3714 27.9718C60.7943 27.709 59.0861 27.5775 57.246 27.5775C54.1973 27.5775 51.674 27.9718 49.6763 28.7603C47.6788 29.5488 46.1018 30.7053 44.9452 32.2298C43.7889 33.7017 42.9739 35.4627 42.5008 37.5128C42.0277 39.5103 41.7912 41.6919 41.7912 44.0575V46.0093C41.7912 47.5007 43.0002 48.7097 44.4916 48.7097H61.5634C63.0548 48.7097 64.2638 49.9187 64.2638 51.4101V64.9336C64.2638 66.425 63.0548 67.634 61.5634 67.634H44.4916C43.0002 67.634 41.7912 68.843 41.7912 70.3344V129.749C41.7912 131.241 40.5822 132.45 39.0908 132.45H20.1265Z" fill="#335755"/>
<path d="M256.679 133.116C247.48 133.116 239.411 131.277 232.472 127.597C225.533 123.865 220.145 118.687 216.307 112.063C212.522 105.44 210.63 97.7909 210.63 89.1173C210.63 80.3386 212.522 72.7425 216.307 66.3293C220.145 59.8634 225.533 54.8432 232.472 51.2686C239.411 47.694 247.48 45.9067 256.679 45.9067C263.565 45.9067 269.663 46.9318 274.973 48.9819C280.282 50.9795 284.724 53.6342 288.299 56.9459C291.873 60.2577 294.58 63.8848 296.42 67.8274C298.26 71.77 299.18 75.6863 299.18 79.5763C299.18 79.6289 299.18 79.734 299.18 79.8917C299.18 80.0659 299.039 80.2071 298.865 80.2071H275.767C275.328 80.2071 274.984 79.8428 274.907 79.4112C274.898 79.3599 274.894 79.3134 274.893 79.2613C274.885 78.9721 274.832 78.6828 274.736 78.3935C274.315 76.1856 273.396 74.1093 271.976 72.1643C270.557 70.2192 268.559 68.6422 265.984 67.4332C263.46 66.1715 260.306 65.5407 256.521 65.5407C252.474 65.5407 248.846 66.4344 245.64 68.2217C242.486 70.009 239.989 72.6636 238.149 76.1856C236.309 79.6551 235.389 83.9657 235.389 89.1173C235.389 94.1638 236.309 98.5268 238.149 102.207C239.989 105.834 242.486 108.62 245.64 110.565C248.846 112.51 252.474 113.482 256.521 113.482C260.674 113.482 264.065 112.852 266.693 111.59C269.322 110.276 271.293 108.541 272.607 106.386C273.509 104.87 274.164 103.254 274.571 101.54C274.891 100.19 276.029 99.1314 277.416 99.1314H296.48C297.971 99.1314 299.194 100.344 299.034 101.826C298.708 104.85 297.837 107.921 296.42 111.038C294.633 115.033 291.952 118.687 288.377 121.998C284.855 125.31 280.44 127.991 275.13 130.041C269.821 132.091 263.67 133.116 256.679 133.116Z" fill="#335755"/>
<path d="M155.68 132.959C149.582 132.959 144.141 131.986 139.357 130.041C134.626 128.096 130.92 125.284 128.239 121.604C125.558 117.924 124.218 113.456 124.218 108.199C124.218 102.259 125.847 97.4229 129.107 93.6906C132.366 89.9584 136.676 87.1198 142.038 85.1747C147.453 83.1772 153.314 81.8629 159.622 81.2321C168.821 80.3386 175.156 79.5236 178.625 78.7877C182.147 78.0519 183.908 76.7638 183.908 74.924C183.908 74.8714 183.908 74.819 183.908 74.7663C183.908 71.6648 182.41 69.2205 179.414 67.4332C176.47 65.6459 172.343 64.7522 167.034 64.7522C161.409 64.7522 157.099 65.7773 154.103 67.8274C151.834 69.3669 150.439 71.5463 149.919 74.3658C149.648 75.8324 148.478 77.053 146.986 77.053H128.337C126.846 77.053 125.624 75.8415 125.739 74.3545C126.166 68.793 127.946 64.0152 131.078 60.0211C134.758 55.3952 139.725 51.8994 145.981 49.5339C152.236 47.1158 159.307 45.9067 167.192 45.9067C174.551 45.9067 181.359 47.0369 187.614 49.2973C193.87 51.5052 198.89 54.8432 202.675 59.3115C206.512 63.7797 208.431 69.457 208.431 76.3434C208.431 77.4473 208.431 78.5512 208.431 79.6551C208.431 80.7064 208.431 81.7841 208.431 82.888V112.536C208.431 114.691 208.484 116.768 208.589 118.765C208.747 120.71 209.062 122.498 209.535 124.127C210.061 125.967 210.718 127.492 211.506 128.701C212.123 129.646 211.397 131.224 210.268 131.224H190.546C189.83 131.224 189.143 130.937 188.711 130.367C188.423 129.987 188.084 129.511 187.693 128.937C186.957 127.781 186.326 126.44 185.801 124.916C185.17 123.076 184.697 121.236 184.381 119.396C184.279 118.663 184.197 117.881 184.135 117.053C183.999 115.244 186.022 114.172 187.517 115.199C188.4 115.806 188.745 116.957 188.24 117.902C186.757 120.676 184.63 123.119 181.858 125.231C178.599 127.702 174.709 129.621 170.188 130.987C165.72 132.302 160.884 132.959 155.68 132.959ZM162.224 114.665C166.061 114.665 169.636 113.982 172.948 112.615C176.312 111.196 179.046 108.988 181.149 105.991C183.251 102.995 184.303 99.0787 184.303 94.2426V90.8739C184.303 88.9822 186.578 88.022 187.933 89.342C189.063 90.4422 188.65 92.3348 187.139 92.787C184.469 93.5865 181.526 94.2819 178.31 94.8734C173.789 95.6619 169.268 96.2927 164.747 96.7659C159.386 97.2916 155.364 98.2114 152.683 99.5257C150.055 100.787 148.741 102.942 148.741 105.991C148.741 108.883 149.871 111.064 152.131 112.536C154.391 113.955 157.756 114.665 162.224 114.665Z" fill="#335755"/>
<path d="M609.345 132.959C603.247 132.959 597.806 131.986 593.022 130.041C588.291 128.096 584.585 125.284 581.904 121.604C579.223 117.924 577.883 113.456 577.883 108.199C577.883 102.259 579.512 97.4229 582.772 93.6906C586.031 89.9584 590.341 87.1198 595.703 85.1747C601.118 83.1772 606.979 81.8629 613.287 81.2321C622.486 80.3386 628.821 79.5236 632.29 78.7877C635.812 78.0519 637.573 76.7638 637.573 74.924C637.573 74.8714 637.573 74.819 637.573 74.7663C637.573 71.6648 636.075 69.2205 633.079 67.4332C630.135 65.6459 626.008 64.7522 620.699 64.7522C615.074 64.7522 610.764 65.7773 607.768 67.8274C605.499 69.3669 604.104 71.5463 603.584 74.3658C603.313 75.8324 602.143 77.053 600.651 77.053H582.003C580.511 77.053 579.289 75.8415 579.404 74.3545C579.831 68.793 581.611 64.0152 584.743 60.0211C588.423 55.3952 593.39 51.8994 599.646 49.5339C605.901 47.1158 612.972 45.9067 620.857 45.9067C628.216 45.9067 635.024 47.0369 641.279 49.2973C647.535 51.5052 652.555 54.8432 656.34 59.3115C660.177 63.7797 662.096 69.457 662.096 76.3434C662.096 77.4473 662.096 78.5512 662.096 79.6551C662.096 80.7064 662.096 81.7841 662.096 82.888V112.536C662.096 114.691 662.149 116.768 662.254 118.765C662.412 120.71 662.727 122.498 663.2 124.127C663.726 125.967 664.383 127.492 665.171 128.701C665.788 129.646 665.062 131.224 663.933 131.224H644.212C643.495 131.224 642.808 130.937 642.376 130.367C642.088 129.987 641.749 129.511 641.358 128.937C640.622 127.781 639.991 126.44 639.466 124.916C638.835 123.076 638.362 121.236 638.046 119.396C637.945 118.663 637.862 117.881 637.8 117.053C637.664 115.244 639.687 114.172 641.182 115.199C642.065 115.806 642.41 116.957 641.905 117.902C640.422 120.676 638.295 123.119 635.523 125.231C632.264 127.702 628.374 129.621 623.853 130.987C619.385 132.302 614.549 132.959 609.345 132.959ZM615.889 114.665C619.727 114.665 623.301 113.982 626.613 112.615C629.977 111.196 632.711 108.988 634.814 105.991C636.916 102.995 637.968 99.0787 637.968 94.2426V90.8739C637.968 88.9822 640.243 88.022 641.598 89.342C642.728 90.4422 642.315 92.3348 640.804 92.787C638.134 93.5865 635.191 94.2819 631.975 94.8734C627.454 95.6619 622.933 96.2927 618.412 96.7659C613.051 97.2916 609.029 98.2114 606.348 99.5257C603.72 100.787 602.406 102.942 602.406 105.991C602.406 108.883 603.536 111.064 605.796 112.536C608.057 113.955 611.421 114.665 615.889 114.665Z" fill="#335755"/>
<path d="M392.293 22.0945C394.327 22.0945 396.012 23.7593 395.608 25.7524C395.135 28.0886 394.21 30.3223 392.872 32.3236C390.849 35.3515 387.974 37.7114 384.609 39.105C381.245 40.4985 377.543 40.8631 373.971 40.1527C370.4 39.4423 367.119 37.6887 364.544 35.1137C361.969 32.5388 360.216 29.2581 359.505 25.6865C358.795 22.1149 359.159 18.4129 360.553 15.0485C361.946 11.6842 364.306 8.80861 367.334 6.78548C369.336 5.44823 371.569 4.5231 373.905 4.04951C375.899 3.64545 377.563 5.33116 377.563 7.36489V22.0945H392.293Z" fill="#335755"/>
<path d="M381.245 3.68239C381.245 1.64866 382.91 -0.0370337 384.903 0.367009C386.06 0.601586 387.195 0.947494 388.291 1.40152C390.525 2.32681 392.555 3.68303 394.264 5.39274C395.974 7.10245 397.33 9.13217 398.256 11.366C398.71 12.4621 399.056 13.5969 399.29 14.7541C399.694 16.7473 398.008 18.412 395.975 18.412L381.245 18.412L381.245 3.68239Z" fill="#FF9340"/>
</svg>
