<svg width="407" height="407" viewBox="0 0 407 407" fill="none" xmlns="http://www.w3.org/2000/svg">
<path d="M28.0791 204C11.5105 204 -2.14696 190.497 0.280924 174.108C4.68497 144.377 15.6247 115.858 32.4593 90.6638C54.8751 57.1162 86.7355 30.9689 124.012 15.5287C161.288 0.0883698 202.305 -3.95149 241.877 3.91988C281.45 11.7913 317.799 31.2204 346.329 59.7503C374.859 88.2802 394.288 124.63 402.159 164.202C410.031 203.774 405.991 244.791 390.551 282.067C375.11 319.344 348.963 351.204 315.415 373.62C290.221 390.454 261.702 401.394 231.972 405.798C215.582 408.226 202.079 394.569 202.079 378L202.079 234C202.079 217.432 188.648 204 172.079 204L28.0791 204Z" fill="#FF9340"/>
</svg>
