<svg width="407" height="407" viewBox="0 0 407 407" fill="none" xmlns="http://www.w3.org/2000/svg">
<path d="M378 202.079C394.569 202.079 408.226 215.582 405.798 231.971C401.394 261.702 390.454 290.221 373.62 315.415C351.204 348.963 319.344 375.11 282.067 390.55C244.791 405.991 203.774 410.031 164.202 402.159C124.629 394.288 88.2801 374.859 59.7502 346.329C31.2203 317.799 11.7912 281.45 3.9198 241.877C-3.95158 202.305 0.0882985 161.288 15.5286 124.012C30.9689 86.7354 57.116 54.875 90.6637 32.4592C115.858 15.6246 144.377 4.68487 174.108 0.280811C190.497 -2.14706 204 11.5104 204 28.079V172.079C204 188.648 217.431 202.079 234 202.079H378Z" fill="#335755"/>
</svg>
